<svg class="lds-spinner" width="100px"  height="100px"  xmlns="http://www.w3.org/2000/svg" xmlns:xlink="http://www.w3.org/1999/xlink" viewBox="0 0 100 100" preserveAspectRatio="xMidYMid" style="background: none;"><g transform="rotate(0 50 50)">
  <rect x="48" y="22.5" rx="7.2" ry="3.375" width="4" height="15" fill="#ffffff">
    <animate attributeName="opacity" values="1;0" keyTimes="0;1" dur="1.1s" begin="-0.99s" repeatCount="indefinite"></animate>
  </rect>
</g><g transform="rotate(36 50 50)">
  <rect x="48" y="22.5" rx="7.2" ry="3.375" width="4" height="15" fill="#ffffff">
    <animate attributeName="opacity" values="1;0" keyTimes="0;1" dur="1.1s" begin="-0.8800000000000001s" repeatCount="indefinite"></animate>
  </rect>
</g><g transform="rotate(72 50 50)">
  <rect x="48" y="22.5" rx="7.2" ry="3.375" width="4" height="15" fill="#ffffff">
    <animate attributeName="opacity" values="1;0" keyTimes="0;1" dur="1.1s" begin="-0.7700000000000001s" repeatCount="indefinite"></animate>
  </rect>
</g><g transform="rotate(108 50 50)">
  <rect x="48" y="22.5" rx="7.2" ry="3.375" width="4" height="15" fill="#ffffff">
    <animate attributeName="opacity" values="1;0" keyTimes="0;1" dur="1.1s" begin="-0.66s" repeatCount="indefinite"></animate>
  </rect>
</g><g transform="rotate(144 50 50)">
  <rect x="48" y="22.5" rx="7.2" ry="3.375" width="4" height="15" fill="#ffffff">
    <animate attributeName="opacity" values="1;0" keyTimes="0;1" dur="1.1s" begin="-0.55s" repeatCount="indefinite"></animate>
  </rect>
</g><g transform="rotate(180 50 50)">
  <rect x="48" y="22.5" rx="7.2" ry="3.375" width="4" height="15" fill="#ffffff">
    <animate attributeName="opacity" values="1;0" keyTimes="0;1" dur="1.1s" begin="-0.44000000000000006s" repeatCount="indefinite"></animate>
  </rect>
</g><g transform="rotate(216 50 50)">
  <rect x="48" y="22.5" rx="7.2" ry="3.375" width="4" height="15" fill="#ffffff">
    <animate attributeName="opacity" values="1;0" keyTimes="0;1" dur="1.1s" begin="-0.33s" repeatCount="indefinite"></animate>
  </rect>
</g><g transform="rotate(252 50 50)">
  <rect x="48" y="22.5" rx="7.2" ry="3.375" width="4" height="15" fill="#ffffff">
    <animate attributeName="opacity" values="1;0" keyTimes="0;1" dur="1.1s" begin="-0.22000000000000003s" repeatCount="indefinite"></animate>
  </rect>
</g><g transform="rotate(288 50 50)">
  <rect x="48" y="22.5" rx="7.2" ry="3.375" width="4" height="15" fill="#ffffff">
    <animate attributeName="opacity" values="1;0" keyTimes="0;1" dur="1.1s" begin="-0.11000000000000001s" repeatCount="indefinite"></animate>
  </rect>
</g><g transform="rotate(324 50 50)">
  <rect x="48" y="22.5" rx="7.2" ry="3.375" width="4" height="15" fill="#ffffff">
    <animate attributeName="opacity" values="1;0" keyTimes="0;1" dur="1.1s" begin="0s" repeatCount="indefinite"></animate>
  </rect>
</g></svg>